#!OML:ASF X:\für Bonn\!DataBase\2005_08_12_Daniel\c3d\Daniel.ASF
:FULLY-SPECIFIED
:DEGREES
1009
root 23.6085 17.2678 33.1564 -174.332 -32.6515 533.415
lowerback 8.39441 -0.90893 -2.7409
upperback 1.73065 -1.63155 -1.773
thorax -2.89026 -0.84731 -0.115174
lowerneck 0.738006 1.56654 -4.3713
upperneck 14.8255 1.80283 -2.5692
head 4.7766 0.197763 -0.062929
rclavicle 4.07384e-014 1.32689e-014
rhumerus -38.4695 -29.7663 -67.4036
rradius 11.879
rwrist 46.2128
rhand -23.3363 17.4846
rfingers 7.12502
rthumb 3.11831 -12.4723
lclavicle 4.07384e-014 1.32689e-014
lhumerus -40.3936 45.5216 47.5555
lradius 15.459
lwrist -39.1788
lhand -20.6666 -6.68423
lfingers 7.12502
lthumb 5.69622 23.2192
rfemur -9.62891 8.99882 19.5917
rtibia 36.6091
rfoot -48.2807 -25.3865
rtoes -0.0987005
lfemur -15.4419 4.29513 -28.3435
ltibia 41.8509
lfoot -26.8734 7.34529
ltoes -5.50116
1010
root 23.608 17.2675 33.1465 -174.197 -33.8367 533.401
lowerback 8.25671 -0.972191 -2.79071
upperback 1.70603 -1.70766 -1.71742
thorax -2.83464 -0.882779 -0.0246459
lowerneck 0.819454 1.35301 -4.56863
upperneck 14.7843 1.49841 -2.36691
head 4.74489 0.0533257 0.0292421
rclavicle -4.83916e-014 0
rhumerus -37.9875 -28.2497 -68.7157
rradius 12.1399
rwrist 44.0606
rhand -23.2393 17.469
rfingers 7.12502
rthumb 3.212 -12.4866
lclavicle -4.83916e-014 0
lhumerus -41.4235 46.4706 46.6469
lradius 15.3352
lwrist -39.7103
lhand -20.7184 -6.92561
lfingers 7.12502
lthumb 5.64627 22.9792
rfemur -9.54607 8.01162 19.5155
rtibia 36.5858
rfoot -47.25 -25.2584
rtoes -1.60315
lfemur -15.2227 3.86893 -28.3065
ltibia 41.5954
lfoot -26.9236 7.45925
ltoes -5.38087
1011
root 23.6056 17.2664 33.1353 -174.096 -35.0212 533.381
lowerback 8.1268 -1.01863 -2.85681
upperback 1.7157 -1.76425 -1.66796
thorax -2.7477 -0.909982 0.0660993
lowerneck 0.869748 1.13009 -4.77437
upperneck 14.7386 1.17985 -2.10352
head 4.7192 -0.0941893 0.143611
rclavicle -4.24902e-015 1.08835e-014
rhumerus -37.54 -26.6353 -70.0837
rradius 12.4902
rwrist 41.8594
rhand -23.1418 17.4021
rfingers 7.12502
rthumb 3.30618 -12.552
lclavicle -4.24902e-015 1.08835e-014
lhumerus -42.5536 47.6655 45.5136
lradius 15.129
lwrist -40.4073
lhand -20.7867 -7.2319
lfingers 7.12502
lthumb 5.58031 22.6746
rfemur -9.32241 7.39505 19.473
rtibia 36.536
rfoot -46.4957 -25.0032
rtoes -2.68459
lfemur -14.9884 3.51258 -28.2492
ltibia 41.3469
lfoot -26.969 7.42759
ltoes -5.08957
1012
root 23.6013 17.2657 33.1212 -173.985 -36.1618 533.386
lowerback 7.97265 -1.07399 -2.94095
upperback 1.68151 -1.83189 -1.60856
thorax -2.69124 -0.940979 0.177977
lowerneck 0.991279 0.920698 -4.9255
upperneck 14.7054 0.873087 -1.88749
head 4.68618 -0.237714 0.232352
rclavicle 3.57688e-014 -1.76421e-014
rhumerus -37.0924 -24.903 -71.4943
rradius 12.8018
rwrist 39.4502
rhand -23.0292 17.2397
rfingers 7.12502
rthumb 3.41493 -12.7127
lclavicle 3.57688e-014 -1.76421e-014
lhumerus -44.4452 49.3988 43.5004
lradius 14.9246
lwrist -41.8611
lhand -20.7759 -7.55806
lfingers 7.12502
lthumb 5.59072 22.3482
rfemur -9.05191 7.05797 19.4425
rtibia 36.4452
rfoot -45.8433 -24.5554
rtoes -3.38348
lfemur -14.8189 3.23419 -28.1742
ltibia 41.1132
lfoot -26.981 7.25467
ltoes -4.92973
1013
root 23.5955 17.2637 33.1064 -173.908 -37.294 533.348
lowerback 7.83445 -1.11989 -3.05804
upperback 1.68847 -1.89255 -1.57276
thorax -2.60069 -0.97042 0.282762
lowerneck 1.14998 0.721772 -5.05899
upperneck 14.6412 0.576141 -1.65597
head 4.63569 -0.373329 0.323903
rclavicle 1.21383e-014 -3.79679e-014
rhumerus -36.6073 -23.1474 -72.9514
rradius 13.1615
rwrist 36.9822
rhand -22.843 17.0224
rfingers 7.12502
rthumb 3.59468 -12.927
lclavicle 1.21383e-014 -3.79679e-014
lhumerus -46.2956 50.9011 41.5951
lradius 14.7558
lwrist -42.8783
lhand -20.6936 -7.82133
lfingers 7.12502
lthumb 5.67023 22.0828
rfemur -8.6571 6.75007 19.3728
rtibia 36.3061
rfoot -45.1946 -23.8459
rtoes -3.70176
lfemur -14.595 2.93349 -28.1282
ltibia 40.8781
lfoot -26.9471 7.08685
ltoes -5.10454
1014
root 23.587 17.263 33.0901 -173.829 -38.365 533.354
lowerback 7.62742 -1.15326 -3.15846
upperback 1.72369 -1.93149 -1.53675
thorax -2.44348 -0.990729 0.373809
lowerneck 1.23367 0.512775 -5.16467
upperneck 14.5362 0.275142 -1.40897
head 4.58649 -0.505143 0.416445
rclavicle -9.17081e-014 1.55052e-014
rhumerus -36.1121 -21.4498 -74.3924
rradius 13.5473
rwrist 34.5174
rhand -22.657 16.7444
rfingers 7.12502
rthumb 3.7743 -13.2019
lclavicle -9.17081e-014 1.55052e-014
lhumerus -48.2246 52.3685 39.6053
lradius 14.5716
lwrist -43.9538
lhand -20.5567 -7.9709
lfingers 7.12502
lthumb 5.80232 21.9297
rfemur -8.23937 6.6335 19.3247
rtibia 36.1141
rfoot -44.607 -23.0048
rtoes -3.80997
lfemur -14.4192 2.63544 -28.025
ltibia 40.648
lfoot -26.8968 6.77156
ltoes -5.3084
1015
root 23.5768 17.2625 33.0747 -173.791 -39.3971 533.343
lowerback 7.47456 -1.17717 -3.27547
upperback 1.76189 -1.96262 -1.51377
thorax -2.31332 -1.0074 0.461056
lowerneck 1.3875 0.290311 -5.21667
upperneck 14.4101 -0.0451375 -1.23301
head 4.5173 -0.647577 0.474828
rclavicle 9.12546e-015 -1.14301e-015
rhumerus -35.7233 -20.219 -75.5269
rradius 13.8967
rwrist 32.7234
rhand -22.41 16.6322
rfingers 7.12502
rthumb 4.0129 -13.3097
lclavicle 9.12546e-015 -1.14301e-015
lhumerus -50.0325 53.4992 37.8229
lradius 14.3972
lwrist -44.7259
lhand -20.4649 -7.93756
lfingers 7.12502
lthumb 5.89103 21.9605
rfemur -7.72427 6.64393 19.2666
rtibia 35.8815
rfoot -44.0192 -22.1257
rtoes -3.78611
lfemur -14.2195 2.20918 -27.9422
ltibia 40.4165
lfoot -26.8492 6.40298
ltoes -5.20902
1016
root 23.5655 17.2639 33.0596 -173.727 -40.4027 533.349
lowerback 7.29452 -1.19533 -3.39154
upperback 1.80516 -1.98438 -1.49464
thorax -2.16315 -1.02 0.541937
lowerneck 1.41741 0.0803817 -5.25109
upperneck 14.3643 -0.342292 -1.02388
head 4.5027 -0.778935 0.542211
rclavicle -4.24778e-014 4.72114e-016
rhumerus -35.324 -18.7779 -76.771
rradius 14.3625
rwrist 30.6046
rhand -22.0394 16.5232
rfingers 7.12502
rthumb 4.37073 -13.4117
lclavicle -4.24778e-014 4.72114e-016
lhumerus -51.783 54.4815 36.1399
lradius 14.2294
lwrist -45.4172
lhand -20.3643 -7.74891
lfingers 7.12502
lthumb 5.98808 22.1465
rfemur -7.21496 6.71018 19.2259
rtibia 35.6052
rfoot -43.4468 -21.1558
rtoes -3.67667
lfemur -14.1008 1.82037 -27.8165
ltibia 40.1956
lfoot -26.7458 5.86293
ltoes -5.06073
1017
root 23.5512 17.2633 33.0466 -173.661 -41.3954 533.312
lowerback 7.15166 -1.21518 -3.52015
upperback 1.84233 -2.0116 -1.48735
thorax -2.03966 -1.03523 0.619019
lowerneck 1.53942 -0.128866 -5.29774
upperneck 14.2626 -0.646973 -0.801774
head 4.45088 -0.912787 0.616185
rclavicle -4.68744e-014 2.28851e-014
rhumerus -35.0513 -17.8315 -77.7063
rradius 14.8112
rwrist 29.1575
rhand -21.7063 16.503
rfingers 7.12502
rthumb 4.69239 -13.425
lclavicle -4.68744e-014 2.28851e-014
lhumerus -53.5581 55.2717 34.5166
lradius 14.127
lwrist -46.1714
lhand -20.2489 -7.46937
lfingers 7.12502
lthumb 6.09953 22.4228
rfemur -6.68035 6.69493 19.1273
rtibia 35.32
rfoot -42.7051 -20.2863
rtoes -4.19715
lfemur -13.9552 1.38905 -27.736
ltibia 39.9895
lfoot -26.7281 5.23171
ltoes -4.82956
1018
root 23.5363 17.2635 33.0329 -173.634 -42.378 533.344
lowerback 7.00242 -1.24811 -3.61875
upperback 1.8782 -2.05181 -1.45522
thorax -1.91346 -1.05683 0.705604
lowerneck 1.64569 -0.310577 -5.33073
upperneck 14.171 -0.909435 -0.623231
head 4.40544 -1.02833 0.674508
rclavicle 3.01221e-014 -1.36494e-014
rhumerus -34.86 -16.7734 -78.6331
rradius 15.4249
rwrist 27.6397
rhand -21.3141 16.5975
rfingers 7.12502
rthumb 5.07106 -13.3219
lclavicle 3.01221e-014 -1.36494e-014
lhumerus -55.6319 56.1337 32.6008
lradius 13.9891
lwrist -47.1956
lhand -20.2132 -7.11569
lfingers 7.12502
lthumb 6.13395 22.7755
rfemur -6.15193 6.77808 19.1129
rtibia 35.0456
rfoot -41.849 -19.6275
rtoes -4.95633
lfemur -13.8084 0.904488 -27.5905
ltibia 39.7923
lfoot -26.7086 4.61585
ltoes -4.34787
